<svg xmlns="http://www.w3.org/2000/svg" xmlns:xlink="http://www.w3.org/1999/xlink" version="1.1" x="0px" y="0px" viewBox="0 0 100 125" style="enable-background:new 0 0 100 100;" xml:space="preserve"><path d="M27.1,80.9v10.4h46.2V80.9c0-6.3-4.9-11.2-11.2-11.2H38.4C32.3,69.7,27.1,74.7,27.1,80.9z"/><path d="M50.2,65.1c7.1,0,12.9-5.8,12.9-12.9s-5.8-12.9-12.9-12.9s-12.9,5.8-12.9,12.9  C37.4,59.3,43.1,65.1,50.2,65.1z"/><path d="M20.1,67c5.6,0,10.1-4.6,10.1-10.1s-4.5-10.2-10.1-10.2S9.9,51.3,9.9,56.9S14.5,67,20.1,67z"/><path d="M80.4,67c5.6,0,10.1-4.6,10.1-10.1s-4.6-10.1-10.1-10.1c-5.6,0-10.1,4.6-10.1,10.1S74.8,67,80.4,67z"/><path d="M10.7,70.7c-4.8,0-8.8,3.9-8.8,8.8v11.8h21.7L23.5,81c0-4.2,1.9-7.9,4.8-10.3H10.7z"/><path d="M89.7,70.7H72.3C75.2,73.2,77,76.9,77,81v10.3h21.6V79.5C98.6,74.6,94.7,70.7,89.7,70.7z"/><path d="M25.4,37.7l-4,6.1l15.9-4.2c8-2.1,12.8-10.4,10.7-18.4c-2.1-8-10.4-12.8-18.4-10.7S16.8,20.8,18.9,28.8  C19.9,32.6,22.3,35.7,25.4,37.7z M40.6,22.5c1.2,0,2.2,1,2.2,2.2c0,1.2-1,2.2-2.2,2.2c-1.2,0-2.2-1-2.2-2.2  C38.4,23.5,39.3,22.5,40.6,22.5z M33.6,22.5c1.2,0,2.2,1,2.2,2.2c0,1.2-1,2.2-2.2,2.2c-1.2,0-2.2-1-2.2-2.2  C31.4,23.5,32.4,22.5,33.6,22.5z M26.5,22.5c1.2,0,2.2,1,2.2,2.2c0,1.2-1,2.2-2.2,2.2c-1.2,0-2.2-1-2.2-2.2  C24.3,23.5,25.3,22.5,26.5,22.5z"/><path d="M79.2,32.7c1.6-6-2-12.2-8-13.7c-6-1.6-12.2,2-13.7,8s2,12.2,8,13.7l11.9,3.1l-3-4.5C76.7,37.8,78.4,35.5,79.2,32.7z   M64.7,29.6c0,0.9-0.7,1.6-1.6,1.6c-0.9,0-1.6-0.7-1.6-1.6c0-0.9,0.7-1.6,1.6-1.6C63.9,28,64.7,28.7,64.7,29.6z M69.8,29.6  c0,0.9-0.7,1.6-1.6,1.6c-0.9,0-1.6-0.7-1.6-1.6c0-0.9,0.7-1.6,1.6-1.6C69.1,28,69.8,28.7,69.8,29.6z M75.1,29.6  c0,0.9-0.7,1.6-1.6,1.6s-1.6-0.7-1.6-1.6c0-0.9,0.7-1.6,1.6-1.6S75.1,28.7,75.1,29.6z"/><text x="0" y="115" fill="#000000" font-size="5px" font-weight="bold" font-family="'Helvetica Neue', Helvetica, Arial-Unicode, Arial, Sans-serif">Created by Aneeque Ahmed</text><text x="0" y="120" fill="#000000" font-size="5px" font-weight="bold" font-family="'Helvetica Neue', Helvetica, Arial-Unicode, Arial, Sans-serif">from the Noun Project</text></svg>